<svg xmlns="http://www.w3.org/2000/svg" xmlns:xlink="http://www.w3.org/1999/xlink" width="82" height="16"><defs><linearGradient id="a" x1="-5.332" x2="2.108" y1=".5" y2=".5" gradientUnits="objectBoundingBox"><stop offset=".149" stop-color="#b43eff"/><stop offset=".915" stop-color="#3689ff"/></linearGradient><linearGradient xlink:href="#a" id="b" x1="-3.354" x2="2.967" y1=".5" y2=".5"/><linearGradient xlink:href="#a" id="c" x1="-2.436" x2="4.142" y1=".5" y2=".5"/><linearGradient xlink:href="#a" id="d" x1="-.931" x2="4.515" y1=".5" y2=".5"/><linearGradient xlink:href="#a" id="e" x1="-5.986" x2=".854" y1=".5" y2=".5"/><linearGradient xlink:href="#a" id="f" x1=".053" x2="6.192" y1=".5" y2=".5"/></defs><g data-name="그룹 211918"><path d="M472.041 88.082v-9.835a.237.237 0 0 0-.237-.237H467.8a.237.237 0 0 0-.237.237v12.582a1.016 1.016 0 0 0 1.016 1.016h9.186a.237.237 0 0 0 .237-.237v-3.289a.237.237 0 0 0-.237-.237z" data-name="패스 261460" style="fill:url(#a)" transform="translate(-410.223 -77.312)"/><path d="M365.817 78.216 364 81.454a.237.237 0 0 0 .207.353h5.175l-5.023 9.049a.677.677 0 0 0 .592 1.006h11.068a.237.237 0 0 0 .237-.237v-3.289a.237.237 0 0 0-.237-.237h-5.055l5.03-9.063a.677.677 0 0 0-.593-1.006l-9.287.014a.337.337 0 0 0-.297.172z" data-name="패스 261461" style="fill:url(#b)" transform="translate(-321.084 -77.329)"/><g data-name="그룹 211917"><path d="M286.3 88.09h-4.856l5.029-9.064a.677.677 0 0 0-.593-1.006l-10.88.014a.237.237 0 0 0-.237.237v3.29a.237.237 0 0 0 .237.239h4.862l-5.023 9.049a.677.677 0 0 0 .592 1.006h8.983a.339.339 0 0 0 .3-.174l1.8-3.237a.237.237 0 0 0-.214-.354z" data-name="패스 261462" style="fill:url(#c)" transform="translate(-244.314 -77.321)"/></g><path d="m168.527 78.458-4.785 13.07a.237.237 0 0 0 .223.318h4.1a.235.235 0 0 0 .225-.163l2.567-7.828 2.567 7.828a.237.237 0 0 0 .225.163h4.1a.237.237 0 0 0 .223-.318l-4.717-13.07a.678.678 0 0 0-.636-.448h-3.457a.681.681 0 0 0-.635.448z" data-name="패스 261463" style="fill:url(#d)" transform="translate(-148.779 -77.312)"/></g><path d="M560.183 82.491c0-.275-.039-1.822 1.251-1.822 1.512 0 2.732 1.309 4.1 1.309 1.666 0 1.628-2.861 1.593-3.725a.247.247 0 0 0-.251-.233l-9.74.007a1.354 1.354 0 0 0-1.353 1.355V90.5a1.355 1.355 0 0 0 1.355 1.355h9.73a.237.237 0 0 0 .261-.248c.035-.882.063-3.711-1.595-3.711-1.364 0-2.584 1.309-4.1 1.309-1.253 0-1.247-1.833-1.247-1.835s-.06-1.511 1.2-1.511c.922 0 2.183.947 2.969.947.435 0 1.138-.133 1.207-1.717v-.3c-.078-1.586-.771-1.717-1.207-1.717-.766 0-1.957.947-2.969.947s-1.204-1.042-1.204-1.528z" data-name="패스 261464" style="fill:url(#e)" transform="translate(-486.135 -77.321)"/><path d="M74.826 86.492c-1.306 0-2.82 1.8-4 1.8-1.54 0-2.246-1.473-2.246-3.29s.706-3.29 2.246-3.29c1.183 0 2.5 1.8 3.81 1.8 1.168 0 1.648-2.719 1.769-4.547v-.512a.38.38 0 0 0-.381-.381h-5.8a6.475 6.475 0 0 0-6.475 6.475v.885a6.475 6.475 0 0 0 6.476 6.468h5.8a.38.38 0 0 0 .381-.381v-.759c-.106-1.807-.465-4.268-1.58-4.268z" data-name="패스 261465" style="fill:url(#f)" transform="translate(-62.75 -77.364)"/></svg>